<?xml version="1.0" encoding="UTF-8" standalone="no"?>
<!-- Created with Inkscape (http://www.inkscape.org/) -->

<svg
   version="1.1"
   id="svg1"
   width="175.16013"
   height="175.66849"
   viewBox="0 0 175.16013 175.66849"
   xmlns="http://www.w3.org/2000/svg"
   xmlns:svg="http://www.w3.org/2000/svg">
  <defs
     id="defs1" />
  <g
     id="g1"
     transform="translate(-672.41993,-264.16575)">
    <path
       id="path3"
       style="fill:#646cff"
       d="m 760.21847,264.21709 c -31.3992,-0.67179 -62.0589,17.62308 -76.8809,45.25781 -19.3783,34.07161 -12.4882,81.09498 16.92,107.36524 14.5804,13.0747 33.5426,22.686 53.4023,22.9941 9.6188,-0.1775 19.3396,-0.3128 28.8242,-2.0429 6.4736,-1.905 12.5427,-4.8837 18.6348,-7.7364 -5.9677,-5.9589 -11.9348,-11.918 -17.9024,-17.87691 -15.1274,5.70301 -32.3121,6.33721 -47.289,-0.25781 -27.1949,-10.91675 -45.1954,-42.01692 -38.7949,-71.00782 3.7129,-22.79853 20.739,-42.2072 42.4628,-49.68945 13.0661,-4.24737 27.7625,-4.28017 40.8204,0.0137 23.5801,8.09079 42.358,30.63329 43.0097,55.9707 0.7735,9.53936 -0.299,19.10963 -2.9297,28.29102 5.8479,5.71326 11.697,11.42742 17.545,17.14062 5.8929,-11.51958 9.391,-24.17871 9.4062,-37.17382 1.5945,-27.56059 -11.2428,-55.07612 -32.875,-72.09766 -15.2276,-12.36962 -34.5868,-19.90118 -54.3535,-19.15039 z m 0.8887,37.92969 c -3.8944,0.16161 -8.1095,6.21405 -8.2813,12.48242 -0.1956,13.65987 -0.0756,27.32141 -0.1094,40.98242 8.9938,8.56608 17.2198,18.03401 26.9688,25.73242 3.0863,1.50598 7.4366,0.42409 9.375,-2.45312 4.1649,-8.28096 -7.6276,-13.91127 -11.7949,-19.82031 -3.5162,-3.52225 -7.0327,-7.04417 -10.5489,-10.56641 -0.1894,-13.81081 0.4865,-27.66607 -0.5429,-41.44141 -1.1613,-3.36483 -2.876,-4.80687 -4.6914,-4.91211 -0.1248,-0.007 -0.2494,-0.009 -0.375,-0.004 z m 45.955,82.32617 c -6.0507,1.82514 -18.0424,10.34072 -12.3808,17.97461 9.995,11.88478 21.3894,22.56938 32.5664,33.33788 5.0357,5.6744 9.3853,4.5776 14.9902,-1.2129 8.7273,-8.3786 1.9767,-14.0747 -3.6406,-19.8281 -10.2853,-10.30384 -20.1361,-21.17739 -31.5352,-30.27149 z" />
  </g>
</svg>
